<svg version="1.1" id="Layer_1" xmlns="http://www.w3.org/2000/svg" xmlns:xlink="http://www.w3.org/1999/xlink" x="0px" y="0px"
	 width="100%" viewBox="0 0 1024 1024" enable-background="new 0 0 1024 1024" xml:space="preserve">
<path fill="#000000" opacity="1.000000" stroke="none" 
	d="
M821.447327,614.708374 
	C803.012451,604.898132 792.474670,589.071411 787.318604,570.040405 
	C776.701111,530.852051 776.471069,491.425293 788.726868,452.481232 
	C795.029846,432.452972 806.814087,416.416473 827.327209,408.745514 
	C851.985535,399.524475 887.740417,403.246643 905.796875,425.930267 
	C914.963867,437.446503 920.104614,450.702301 922.774841,464.904388 
	C928.767883,496.780273 929.274902,528.743347 922.118652,560.503967 
	C917.672241,580.238037 909.562256,598.128967 892.385986,610.386536 
	C882.642029,617.340149 871.638489,620.775757 859.712891,621.327209 
	C846.600525,621.933533 833.736450,621.056519 821.447327,614.708374 
M874.879272,595.452759 
	C885.658630,589.452759 891.239685,579.551697 894.656921,568.297913 
	C902.575867,542.218445 902.491455,515.494812 900.451355,488.664856 
	C900.362732,487.499969 900.445190,485.937256 898.741821,485.254669 
	C897.457825,486.264221 896.083191,487.210846 894.861633,488.325226 
	C868.048340,512.787292 841.258484,537.274963 814.435974,561.726807 
	C812.891846,563.134460 812.455261,564.501221 813.121643,566.561462 
	C823.199036,597.717041 847.046936,607.687134 874.879272,595.452759 
M806.077759,506.502625 
	C806.328430,516.973999 805.337646,527.532593 807.463806,538.049927 
	C810.179443,537.364380 811.296082,535.826599 812.634155,534.617188 
	C822.388733,525.800171 832.129089,516.967468 841.863525,508.128235 
	C858.621521,492.911499 875.371765,477.686249 892.126038,462.465393 
	C893.612000,461.115509 895.269897,459.872498 894.326538,457.431854 
	C889.467285,444.860016 883.129944,433.401184 869.670166,428.259552 
	C851.668640,421.382965 823.973938,424.601166 814.037476,453.023376 
	C808.079529,470.065582 806.222107,487.630127 806.077759,506.502625 
z"/>
<path fill="#000000" opacity="1.000000" stroke="none" 
	d="
M206.363297,553.000122 
	C206.366684,572.996643 206.229141,592.494995 206.472031,611.988525 
	C206.532776,616.865051 204.896912,618.722961 200.163452,618.154968 
	C198.684113,617.977478 197.162048,618.028809 195.668655,618.121765 
	C192.458557,618.321594 191.131958,616.789001 191.141281,613.672485 
	C191.212570,589.845337 191.095322,566.016479 191.344116,542.191284 
	C191.551132,522.365723 191.541000,502.546722 191.346832,482.721100 
	C191.133102,460.899170 191.124588,439.068817 191.498611,417.250275 
	C191.677429,406.818817 192.171310,406.791168 202.659500,406.817505 
	C214.972183,406.848389 227.305557,406.288116 239.519257,408.632874 
	C262.726593,413.088196 276.675323,428.317963 279.403259,451.738007 
	C280.904541,464.626892 280.662384,477.315552 277.205536,489.857788 
	C273.355133,503.827820 264.938873,514.027283 251.859146,520.360779 
	C250.396149,521.069214 248.680038,521.470337 247.317108,523.693054 
	C260.754395,554.443176 274.372009,585.606018 288.330475,617.548828 
	C282.495575,618.402161 277.724823,618.404419 273.006775,617.779907 
	C270.487091,617.446411 270.132904,614.741028 269.309387,612.819336 
	C258.091583,586.642151 246.922012,560.444336 235.744492,534.249878 
	C232.340347,526.272278 232.345825,526.270325 223.837128,526.269104 
	C220.171112,526.268616 216.477676,526.548340 212.845795,526.195496 
	C207.928116,525.717712 205.906693,527.232910 206.262802,532.511047 
	C206.710449,539.146118 206.365845,545.834595 206.363297,553.000122 
M254.328232,500.815369 
	C258.228912,496.339386 260.935516,491.159180 262.395813,485.476105 
	C265.549561,473.202789 265.687134,460.808502 262.871704,448.438324 
	C259.683502,434.430298 250.693542,426.390045 236.845856,423.392212 
	C227.956161,421.467712 218.949799,422.303162 209.985458,422.102753 
	C207.100998,422.038269 206.342682,423.636230 206.346481,426.223633 
	C206.386047,453.352417 206.409348,480.481354 206.328873,507.609955 
	C206.319092,510.906219 207.656494,512.047729 210.783310,511.978943 
	C216.772141,511.847198 222.764969,511.911163 228.755676,511.848145 
	C238.535004,511.745270 246.922607,508.286621 254.328232,500.815369 
z"/>
<path fill="#000000" opacity="1.000000" stroke="none" 
	d="
M408.452820,598.329712 
	C398.537933,615.331665 383.244232,621.356873 364.841827,620.778503 
	C343.653839,620.112610 329.052490,609.568542 321.098480,590.011414 
	C316.858856,579.587097 314.746063,568.621216 314.697968,557.365723 
	C314.489990,508.709534 314.405243,460.052826 314.226288,411.396484 
	C314.215088,408.350555 315.133484,406.896484 318.479218,406.750000 
	C329.466064,406.269073 329.429535,406.159973 329.426483,417.204956 
	C329.414429,460.866974 329.288483,504.529663 329.513336,548.190552 
	C329.575806,560.319641 330.275909,572.485718 335.116302,583.972351 
	C342.699799,601.968750 359.105530,610.183899 377.368591,604.611145 
	C391.539978,600.286987 397.226654,588.827087 400.582367,575.691040 
	C402.827301,566.903259 402.973145,557.912109 402.968445,548.907410 
	C402.944977,503.912170 402.938049,458.916901 402.993073,413.921753 
	C402.995911,411.582458 401.814362,408.117065 404.829224,407.298737 
	C408.770844,406.228882 413.128998,406.098419 417.106781,407.518799 
	C418.873810,408.149750 418.297058,410.444458 418.301361,412.054474 
	C418.336548,425.219666 418.327820,438.384979 418.322968,451.550262 
	C418.310150,486.379852 418.480743,521.211060 418.187164,556.038330 
	C418.064240,570.618408 415.640442,584.888550 408.452820,598.329712 
z"/>
<path fill="#000000" opacity="1.000000" stroke="none" 
	d="
M690.000000,603.109131 
	C696.832336,603.109009 703.168823,603.247742 709.495422,603.056763 
	C713.626587,602.932007 715.015137,604.630005 714.994202,608.689209 
	C714.945740,618.093872 715.100464,618.103699 705.791138,618.105408 
	C685.127747,618.109253 664.463135,617.981934 643.801880,618.190918 
	C638.954529,618.239868 637.573425,616.588257 637.582458,611.843994 
	C637.708679,545.688049 637.712708,479.531677 637.571777,413.375763 
	C637.561279,408.473450 638.754944,406.659180 643.965698,406.719543 
	C665.625854,406.970612 687.290833,406.795166 708.954041,406.803162 
	C714.497498,406.805206 715.215637,407.651917 714.789429,413.307770 
	C714.180725,421.385162 714.180725,421.375916 706.002808,421.374451 
	C690.005371,421.371643 674.007019,421.471924 658.011047,421.319336 
	C654.033691,421.281403 652.643494,422.171692 652.708557,426.627594 
	C653.029785,448.619476 652.872986,470.618225 652.911621,492.614502 
	C652.924377,499.895172 652.960938,499.910858 660.032471,499.918335 
	C675.030090,499.934204 690.029846,500.074341 705.024109,499.852539 
	C709.681091,499.783661 712.024536,501.073700 711.336853,506.022125 
	C711.223267,506.839844 711.211304,507.701935 711.331604,508.517029 
	C712.108704,513.780579 709.424438,515.036926 704.689514,514.979370 
	C690.027405,514.801208 675.361694,514.924377 660.697388,514.922791 
	C652.924988,514.921997 652.910522,514.914734 652.906738,522.649536 
	C652.894836,546.979004 652.884216,571.308472 652.896606,595.637939 
	C652.900330,602.988037 652.997437,603.058716 660.504333,603.074707 
	C670.169556,603.095276 679.834778,603.097656 690.000000,603.109131 
z"/>
<path fill="#000000" opacity="1.000000" stroke="none" 
	d="
M538.156372,620.260559 
	C530.436462,619.265991 523.266418,617.955872 516.267029,615.658997 
	C512.177612,614.317139 510.202026,612.121094 510.671539,607.657715 
	C510.994202,604.590576 510.733429,601.462097 510.733429,597.695068 
	C518.230713,599.715271 524.346130,602.794800 531.060242,603.970215 
	C536.979370,605.006531 542.891907,605.619995 548.884705,605.997070 
	C571.591492,607.425842 583.079468,590.628540 586.469666,576.222290 
	C588.514709,567.531982 588.344116,558.703247 586.527222,549.967957 
	C584.295410,539.238220 577.818787,531.547241 568.972412,525.426392 
	C559.207825,518.670105 548.368225,513.849670 538.175842,507.856506 
	C506.721313,489.361206 507.470184,444.128693 522.408386,423.896301 
	C533.378479,409.038269 548.380493,403.146362 566.316040,403.903473 
	C576.527588,404.334534 586.354553,406.815369 595.895996,410.544678 
	C599.433960,411.927460 600.416748,413.509857 598.835754,417.256714 
	C594.801392,426.817627 594.962646,426.902069 585.177307,423.268585 
	C575.974976,419.851654 566.471497,418.564667 556.712341,419.374847 
	C542.774353,420.531982 530.483032,433.167358 528.300720,448.181641 
	C527.283875,455.177277 527.487183,462.084900 528.587463,469.036377 
	C530.673096,482.212799 539.056641,490.628174 549.849548,497.115204 
	C556.125061,500.887177 562.673889,504.201385 569.049011,507.811157 
	C585.335205,517.032776 598.207825,529.268433 601.619446,548.526733 
	C605.771851,571.967529 601.951477,593.373901 582.953613,609.900513 
	C572.819763,618.716125 560.652405,621.318604 547.588562,620.799561 
	C544.595459,620.680603 541.606628,620.454651 538.156372,620.260559 
z"/>
<path fill="#000000" opacity="1.000000" stroke="none" 
	d="
M82.447609,463.390747 
	C74.512749,497.986908 74.181107,532.054016 84.344025,565.897095 
	C85.976768,571.334229 88.361519,576.501465 91.218147,581.402039 
	C104.706337,604.541260 123.376274,610.846863 150.658020,602.838989 
	C152.672745,602.247559 154.475143,600.729858 156.755707,601.237183 
	C160.208466,610.465515 158.443558,614.865356 149.660095,617.522705 
	C119.827431,626.548584 92.781654,617.516113 76.654739,587.680908 
	C67.789413,571.279907 63.782272,553.461609 61.947502,535.124634 
	C59.443245,510.096832 60.347729,485.198517 66.933258,460.797272 
	C71.835899,442.631592 79.695900,425.995209 95.172592,414.224731 
	C112.084946,401.362366 140.969711,400.069092 159.158295,410.935272 
	C161.546753,412.362183 161.856476,413.689423 160.739502,416.173950 
	C156.388229,425.852539 156.466705,425.887848 147.162231,422.044098 
	C126.037674,413.317383 106.575752,419.151825 93.777008,438.038391 
	C88.580605,445.706482 85.134590,454.157806 82.447609,463.390747 
z"/>
<path fill="#000000" opacity="1.000000" stroke="none" 
	d="
M476.424194,594.976318 
	C476.567352,601.132507 476.686859,606.794067 476.861572,612.453918 
	C476.977997,616.225464 475.793701,618.212280 471.432617,618.201599 
	C461.623779,618.177551 461.626160,618.381531 461.625763,608.552063 
	C461.623138,543.722961 461.606293,478.893799 461.668365,414.064728 
	C461.670563,411.747437 460.327240,408.294189 463.278320,407.368713 
	C467.191528,406.141602 471.531006,406.223572 475.556976,407.484589 
	C476.827911,407.882690 476.819000,409.700623 476.764343,411.061218 
	C475.934814,431.710175 477.415771,452.363068 476.794037,473.001617 
	C476.196594,492.832672 476.549805,512.657898 476.447021,532.484985 
	C476.339905,553.149780 476.423706,573.815613 476.424194,594.976318 
z"/>
<path fill="#000000" opacity="1.000000" stroke="none" 
	d="
M746.837036,601.395264 
	C749.077148,591.421082 752.474915,588.096619 759.567566,588.740234 
	C761.017883,588.871826 762.567871,589.253418 763.822937,589.961304 
	C770.020752,593.457581 770.408691,599.503967 770.220764,605.605835 
	C770.045715,611.289795 768.786926,616.569702 762.864502,619.213257 
	C756.705261,621.962524 750.154419,619.098450 748.010315,612.659363 
	C746.843567,609.155396 746.479919,605.523315 746.837036,601.395264 
z"/>
</svg>